<svg width="70" height="70" viewBox="0 0 70 70" fill="none" xmlns="http://www.w3.org/2000/svg">
<path fill-rule="evenodd" clip-rule="evenodd" d="M44.8389 37.7419C44.8389 44.7096 50.4518 50.3225 57.4195 50.3225C64.3873 50.3225 70.0002 44.7096 70.0002 37.7419C70.0002 30.7742 64.3873 25.1613 57.4195 25.1613C50.4518 25.1613 44.8389 30.7742 44.8389 37.7419ZM46.7744 37.7419C46.7744 32.2258 51.0324 27.6774 56.4518 27.1935V37.3548L49.2905 44.5161C47.7421 42.6774 46.7744 40.3548 46.7744 37.7419ZM58.3873 27.0967V36.7742H66.1292V38.7096H57.8066L50.6453 45.8709C52.484 47.4193 54.8066 48.3871 57.4195 48.3871C63.3227 48.3871 68.0647 43.6451 68.0647 37.7419C68.0647 32.2258 63.8066 27.6774 58.3873 27.0967Z" fill="#FB7710" fill-opacity="0.26"/>
<rect x="24.5161" y="13.5483" width="35.8064" height="1.93548" fill="#FB7710" fill-opacity="0.26"/>
<rect x="24.5161" y="17.4193" width="23.2258" height="1.93548" fill="#FB7710" fill-opacity="0.26"/>
<path d="M20.9354 13.8387L17.7418 17.0323L16.4837 15.7742L15.1289 17.1291L17.7418 19.742L22.2902 15.1936L20.9354 13.8387Z" fill="#FB7710" fill-opacity="0.26"/>
<rect x="49.6772" y="17.4193" width="8.70968" height="1.93548" fill="#FB7710" fill-opacity="0.26"/>
<rect x="24.5161" y="5.8064" width="19.3548" height="1.93548" fill="#FB7710" fill-opacity="0.26"/>
<rect x="45.8066" y="5.8064" width="14.5161" height="1.93548" fill="#FB7710" fill-opacity="0.26"/>
<rect x="24.5161" y="9.67737" width="6.77419" height="1.93548" fill="#FB7710" fill-opacity="0.26"/>
<path d="M20.9354 6.0968L17.7418 9.29035L16.4837 8.03229L15.1289 9.38712L17.7418 12L22.2902 7.45164L20.9354 6.0968Z" fill="#FB7710" fill-opacity="0.26"/>
<rect x="52.5806" y="9.67737" width="3.87097" height="1.93548" fill="#FB7710" fill-opacity="0.26"/>
<rect x="33.2256" y="9.67737" width="17.4194" height="1.93548" fill="#FB7710" fill-opacity="0.26"/>
<rect x="24.5161" y="21.2903" width="11.6129" height="1.93548" fill="#FB7710" fill-opacity="0.26"/>
<rect x="38.0645" y="21.2903" width="22.2581" height="1.93548" fill="#FB7710" fill-opacity="0.26"/>
<rect x="24.5161" y="25.1613" width="15.4839" height="1.93548" fill="#FB7710" fill-opacity="0.26"/>
<path fill-rule="evenodd" clip-rule="evenodd" d="M15.8066 21.2903H21.6131V27.0967H15.8066V21.2903ZM17.7421 25.1613H19.6776V23.2258H17.7421V25.1613Z" fill="#FB7710" fill-opacity="0.26"/>
<rect x="24.5161" y="29.0322" width="18.3871" height="1.93548" fill="#FB7710" fill-opacity="0.26"/>
<rect x="24.5161" y="32.9032" width="6.77419" height="1.93548" fill="#FB7710" fill-opacity="0.26"/>
<path fill-rule="evenodd" clip-rule="evenodd" d="M21.6131 34.8387H15.8066V29.0322H21.6131V34.8387ZM19.6776 30.9677H17.7421V32.9032H19.6776V30.9677Z" fill="#FB7710" fill-opacity="0.26"/>
<rect x="33.2256" y="32.9032" width="9.67742" height="1.93548" fill="#FB7710" fill-opacity="0.26"/>
<path fill-rule="evenodd" clip-rule="evenodd" d="M61.4839 52.2581L67.0968 54.4839V55.1613H70V57.0968H67.0968V57.7742L61.4839 60H13.871V59.0322H11.9355C11.4516 59.0322 10.9677 58.8387 10.5806 58.4516C10.1935 58.0645 10 57.5806 10 57.0968V55.1613C10 54.6774 10.1935 54.1935 10.5806 53.8064C10.9677 53.4193 11.4516 53.2258 11.9355 53.2258H13.871V52.2581H17.7419V51.2903C17.7419 50.5161 18.129 49.8387 18.6129 49.2581C19.0968 48.6774 19.871 48.3871 20.6452 48.3871H39.0323V50.3226H20.6452C20.3548 50.3226 20.1613 50.4193 19.9677 50.6129C19.7742 50.8064 19.6774 51 19.6774 51.2903V52.2581H61.4839ZM11.9355 57.0968H13.871V55.1613H11.9355V57.0968ZM17.7419 58.0645H15.8065V54.1935H17.7419V58.0645ZM19.6774 58.0645H52.5806V54.1935H19.6774V58.0645ZM56.4516 58.0645H54.5161V54.1935H56.4516V58.0645ZM61.0968 58.0645L65.1613 56.4193V55.8387L61.0968 54.1935H58.3871V58.0645H61.0968Z" fill="#FB7710" fill-opacity="0.26"/>
<rect x="40.9678" y="38.7097" width="1.93548" height="1.93548" fill="#FB7710" fill-opacity="0.26"/>
<rect x="37.0967" y="38.7097" width="1.93548" height="1.93548" fill="#FB7710" fill-opacity="0.26"/>
<rect x="33.2256" y="38.7097" width="1.93548" height="1.93548" fill="#FB7710" fill-opacity="0.26"/>
<path d="M13.871 42.5806V45.4839C13.871 45.871 14.0645 46.2581 14.4516 46.3548C14.5484 46.4516 14.7419 46.4516 14.8387 46.4516C15.129 46.4516 15.3226 46.3548 15.5161 46.1613L21.0323 40.6452H31.2903V38.7097H20.6452C20.3548 38.7097 20.1613 38.8064 19.9677 39L15.8065 43.1613V42.5806V38.7097H11.9355V1.93548H64.1936V23.2258H66.129V0H10V40.6452H13.871V42.5806Z" fill="#FB7710" fill-opacity="0.26"/>
<path fill-rule="evenodd" clip-rule="evenodd" d="M34.8389 47.7419C34.8389 54.7096 40.4518 60.3225 47.4195 60.3225C54.3873 60.3225 60.0002 54.7096 60.0002 47.7419C60.0002 40.7742 54.3873 35.1613 47.4195 35.1613C40.4518 35.1613 34.8389 40.7742 34.8389 47.7419ZM36.7744 47.7419C36.7744 42.2258 41.0324 37.6774 46.4518 37.1935V47.3548L39.2905 54.5161C37.7421 52.6774 36.7744 50.3548 36.7744 47.7419ZM48.3873 37.0967V46.7742H56.1292V48.7096H47.8066L40.6453 55.8709C42.484 57.4193 44.8066 58.3871 47.4195 58.3871C53.3227 58.3871 58.0647 53.6451 58.0647 47.7419C58.0647 42.2258 53.8066 37.6774 48.3873 37.0967Z" fill="#FB7710"/>
<rect x="14.5161" y="23.5483" width="35.8064" height="1.93548" fill="#FB7710"/>
<rect x="14.5161" y="27.4193" width="23.2258" height="1.93548" fill="#FB7710"/>
<path d="M10.9354 23.8387L7.74181 27.0323L6.48374 25.7742L5.12891 27.1291L7.74181 29.742L12.2902 25.1936L10.9354 23.8387Z" fill="#FB7710"/>
<rect x="39.6772" y="27.4193" width="8.70968" height="1.93548" fill="#FB7710"/>
<rect x="14.5161" y="15.8064" width="19.3548" height="1.93548" fill="#FB7710"/>
<rect x="35.8066" y="15.8064" width="14.5161" height="1.93548" fill="#FB7710"/>
<rect x="14.5161" y="19.6774" width="6.77419" height="1.93548" fill="#FB7710"/>
<path d="M10.9354 16.0968L7.74181 19.2904L6.48374 18.0323L5.12891 19.3871L7.74181 22L12.2902 17.4516L10.9354 16.0968Z" fill="#FB7710"/>
<rect x="42.5806" y="19.6774" width="3.87097" height="1.93548" fill="#FB7710"/>
<rect x="23.2256" y="19.6774" width="17.4194" height="1.93548" fill="#FB7710"/>
<rect x="14.5161" y="31.2903" width="11.6129" height="1.93548" fill="#FB7710"/>
<rect x="28.0645" y="31.2903" width="22.2581" height="1.93548" fill="#FB7710"/>
<rect x="14.5161" y="35.1613" width="15.4839" height="1.93548" fill="#FB7710"/>
<path fill-rule="evenodd" clip-rule="evenodd" d="M5.80664 31.2903H11.6131V37.0967H5.80664V31.2903ZM7.74212 35.1613H9.67761V33.2258H7.74212V35.1613Z" fill="#FB7710"/>
<rect x="14.5161" y="39.0322" width="18.3871" height="1.93548" fill="#FB7710"/>
<rect x="14.5161" y="42.9032" width="6.77419" height="1.93548" fill="#FB7710"/>
<path fill-rule="evenodd" clip-rule="evenodd" d="M11.6131 44.8387H5.80664V39.0322H11.6131V44.8387ZM9.67761 40.9677H7.74212V42.9032H9.67761V40.9677Z" fill="#FB7710"/>
<rect x="23.2256" y="42.9032" width="9.67742" height="1.93548" fill="#FB7710"/>
<path fill-rule="evenodd" clip-rule="evenodd" d="M51.4839 62.2581L57.0968 64.4839V65.1613H60V67.0968H57.0968V67.7742L51.4839 70H3.87097V69.0322H1.93548C1.45161 69.0322 0.967742 68.8387 0.580645 68.4516C0.193548 68.0645 0 67.5806 0 67.0968V65.1613C0 64.6774 0.193548 64.1935 0.580645 63.8064C0.967742 63.4193 1.45161 63.2258 1.93548 63.2258H3.87097V62.2581H7.74194V61.2903C7.74194 60.5161 8.12903 59.8387 8.6129 59.2581C9.09677 58.6774 9.87097 58.3871 10.6452 58.3871H29.0323V60.3226H10.6452C10.3548 60.3226 10.1613 60.4193 9.96774 60.6129C9.77419 60.8064 9.67742 61 9.67742 61.2903V62.2581H51.4839ZM1.93548 67.0968H3.87097V65.1613H1.93548V67.0968ZM7.74194 68.0645H5.80645V64.1935H7.74194V68.0645ZM9.67742 68.0645H42.5806V64.1935H9.67742V68.0645ZM46.4516 68.0645H44.5161V64.1935H46.4516V68.0645ZM51.0968 68.0645L55.1613 66.4193V65.8387L51.0968 64.1935H48.3871V68.0645H51.0968Z" fill="#FB7710"/>
<rect x="30.9678" y="48.7097" width="1.93548" height="1.93548" fill="#FB7710"/>
<rect x="27.0967" y="48.7097" width="1.93548" height="1.93548" fill="#FB7710"/>
<rect x="23.2256" y="48.7097" width="1.93548" height="1.93548" fill="#FB7710"/>
<path d="M3.87097 52.5806V55.4839C3.87097 55.871 4.06452 56.2581 4.45161 56.3548C4.54839 56.4516 4.74194 56.4516 4.83871 56.4516C5.12903 56.4516 5.32258 56.3548 5.51613 56.1613L11.0323 50.6452H21.2903V48.7097H10.6452C10.3548 48.7097 10.1613 48.8064 9.96774 49L5.80645 53.1613V52.5806V48.7097H1.93548V11.9355H54.1936V33.2258H56.129V10H0V50.6452H3.87097V52.5806Z" fill="#FB7710"/>
</svg>
