<svg width="64" height="65" viewBox="0 0 64 65" fill="none" xmlns="http://www.w3.org/2000/svg">
<path fill-rule="evenodd" clip-rule="evenodd" d="M63.9169 13.6014C63.9698 13.7211 64 13.8534 64 13.9932H63.9998V49.3658V49.3659V51.9307C63.9998 52.7508 63.6878 53.5215 63.1209 54.1013C62.5566 54.68 61.8028 55 60.9999 55C60.1975 55 59.4443 54.6799 58.8776 54.1004C58.3117 53.5208 58 52.7501 58 51.9306V49.3657V48.413V13.9933C58 13.8535 58.0303 13.7211 58.0832 13.6014L58.0829 13.6012L61 7L63.9176 13.6011L63.9169 13.6014ZM60.3739 13.0409H61.6265L61.0001 11.6237L60.3739 13.0409ZM59.8621 14.9459H62.138V48.4129H59.8621V14.9459ZM61.8034 52.7539C62.0196 52.5331 62.1377 52.2415 62.1377 51.9305V50.3182H59.8621V51.9305C59.8621 52.2415 59.9804 52.5332 60.195 52.753C60.6251 53.1938 61.3763 53.1931 61.8034 52.7539Z" fill="#FB7710" fill-opacity="0.26"/>
<path d="M42 3.91553H53.1238V47.9426C53.1238 50.778 50.8666 53.0844 48.0912 53.0844V55C51.9005 55 55 51.8339 55 47.9426V2H42V3.91553Z" fill="#FB7710" fill-opacity="0.26"/>
<path fill-rule="evenodd" clip-rule="evenodd" d="M42.9196 46.9842V47.9419C42.9196 50.7769 45.199 53.0844 48 53.0844V55H16.9736C13.1289 55 10.0009 51.8348 10 47.9435V46.9858L16.0252 46.9855V2H29.1471V3.91553H17.9184V46.9855L42.9196 46.9842ZM11.9818 48.9014C12.4267 51.2803 14.4961 53.0844 16.9733 53.0844H43.2283C42.0908 52.0027 41.3113 50.5403 41.0904 48.8997L11.9818 48.9014Z" fill="#FB7710" fill-opacity="0.26"/>
<path fill-rule="evenodd" clip-rule="evenodd" d="M39 3.49937C39.0003 5.42964 37.4298 7 35.4996 7C33.57 7 32 5.42964 32 3.49937C32 1.57002 33.5703 0 35.4996 0C37.4298 0 39 1.57002 39 3.49937ZM36.9678 3.49937C36.968 2.69023 36.3095 2.03209 35.4996 2.03209C34.6908 2.03209 34.0321 2.69011 34.0321 3.49937C34.0321 4.30897 34.6906 4.96791 35.4996 4.96791C36.3095 4.96791 36.9678 4.30886 36.9678 3.49937Z" fill="#FB7710" fill-opacity="0.26"/>
<path d="M43.4832 26.0923H36.4514V22H34.5475V26.0923H27.5174C26.5774 26.0923 25.6935 26.4413 25.0313 27.0737C24.366 27.7065 24 28.5482 24 29.4444V31.9987H25.9039V29.4444C25.9039 29.0332 26.0717 28.6475 26.3775 28.3561C26.6814 28.0663 27.0865 27.9064 27.5174 27.9064H34.5475V32H36.4514V27.9064H43.4832C43.9141 27.9064 44.3186 28.0665 44.6242 28.3584C44.9286 28.6477 45.0961 29.0327 45.0961 29.4446V31.9989H47V29.4446C47 28.5468 46.6331 27.7051 45.9706 27.0757C45.3071 26.4415 44.4237 26.0923 43.4832 26.0923Z" fill="#FB7710" fill-opacity="0.26"/>
<path fill-rule="evenodd" clip-rule="evenodd" d="M40 43H31V34H40V43ZM38.0402 35.9594H32.9595V41.0405H38.0402V35.9594Z" fill="#FB7710" fill-opacity="0.26"/>
<path fill-rule="evenodd" clip-rule="evenodd" d="M44 21H28V12H44V21ZM42.0458 13.9595H29.9548V19.0406H42.0458V13.9595Z" fill="#FB7710" fill-opacity="0.26"/>
<path fill-rule="evenodd" clip-rule="evenodd" d="M51 43H42V34H51V43ZM49.0403 35.9594H43.9597V41.0405H49.0403V35.9594Z" fill="#FB7710" fill-opacity="0.26"/>
<path fill-rule="evenodd" clip-rule="evenodd" d="M30 43H21V34H30V43ZM28.0408 35.9594H22.9598V41.0405H28.0408V35.9594Z" fill="#FB7710" fill-opacity="0.26"/>
<path fill-rule="evenodd" clip-rule="evenodd" d="M53.9169 23.6014C53.9698 23.7211 54 23.8534 54 23.9932H53.9998V59.3658V59.3659V61.9307C53.9998 62.7508 53.6878 63.5215 53.1209 64.1013C52.5566 64.68 51.8028 65 50.9999 65C50.1975 65 49.4443 64.6799 48.8776 64.1004C48.3117 63.5208 48 62.7501 48 61.9306V59.3657V58.413V23.9933C48 23.8535 48.0303 23.7211 48.0832 23.6014L48.0829 23.6012L51 17L53.9176 23.6011L53.9169 23.6014ZM50.3739 23.0409H51.6265L51.0001 21.6237L50.3739 23.0409ZM49.8621 24.9459H52.138V58.4129H49.8621V24.9459ZM51.8034 62.7539C52.0196 62.5331 52.1377 62.2415 52.1377 61.9305V60.3182H49.8621V61.9305C49.8621 62.2415 49.9804 62.5332 50.195 62.753C50.6251 63.1938 51.3763 63.1931 51.8034 62.7539Z" fill="#FB7710"/>
<path d="M32 13.9155H43.1238V57.9426C43.1238 60.778 40.8666 63.0844 38.0912 63.0844V65C41.9005 65 45 61.8339 45 57.9426V12H32V13.9155Z" fill="#FB7710"/>
<path fill-rule="evenodd" clip-rule="evenodd" d="M32.9196 56.9842V57.9419C32.9196 60.7769 35.199 63.0844 38 63.0844V65H6.97356C3.12889 65 0.000854537 61.8348 0 57.9435V56.9858L6.02524 56.9855V12H19.1471V13.9155H7.91836V56.9855L32.9196 56.9842ZM1.98178 58.9014C2.42667 61.2803 4.49615 63.0844 6.97335 63.0844H33.2283C32.0908 62.0027 31.3113 60.5403 31.0904 58.8997L1.98178 58.9014Z" fill="#FB7710"/>
<path fill-rule="evenodd" clip-rule="evenodd" d="M29 13.4994C29.0003 15.4296 27.4298 17 25.4996 17C23.57 17 22 15.4296 22 13.4994C22 11.57 23.5703 10 25.4996 10C27.4298 10 29 11.57 29 13.4994ZM26.9678 13.4994C26.968 12.6902 26.3095 12.0321 25.4996 12.0321C24.6908 12.0321 24.0321 12.6901 24.0321 13.4994C24.0321 14.309 24.6906 14.9679 25.4996 14.9679C26.3095 14.9679 26.9678 14.3089 26.9678 13.4994Z" fill="#FB7710"/>
<path d="M33.4832 36.0923H26.4514V32H24.5475V36.0923H17.5174C16.5774 36.0923 15.6935 36.4413 15.0313 37.0737C14.366 37.7065 14 38.5482 14 39.4444V41.9987H15.9039V39.4444C15.9039 39.0332 16.0717 38.6475 16.3775 38.3561C16.6814 38.0663 17.0865 37.9064 17.5174 37.9064H24.5475V42H26.4514V37.9064H33.4832C33.9141 37.9064 34.3186 38.0665 34.6242 38.3584C34.9286 38.6477 35.0961 39.0327 35.0961 39.4446V41.9989H37V39.4446C37 38.5468 36.6331 37.7051 35.9706 37.0757C35.3071 36.4415 34.4237 36.0923 33.4832 36.0923Z" fill="#FB7710"/>
<path fill-rule="evenodd" clip-rule="evenodd" d="M30 53H21V44H30V53ZM28.0402 45.9594H22.9595V51.0405H28.0402V45.9594Z" fill="#FB7710"/>
<path fill-rule="evenodd" clip-rule="evenodd" d="M34 31H18V22H34V31ZM32.0458 23.9595H19.9548V29.0406H32.0458V23.9595Z" fill="#FB7710"/>
<path fill-rule="evenodd" clip-rule="evenodd" d="M41 53H32V44H41V53ZM39.0403 45.9594H33.9597V51.0405H39.0403V45.9594Z" fill="#FB7710"/>
<path fill-rule="evenodd" clip-rule="evenodd" d="M20 53H11V44H20V53ZM18.0408 45.9594H12.9598V51.0405H18.0408V45.9594Z" fill="#FB7710"/>
</svg>
