<svg width="76" height="76" viewBox="0 0 76 76" fill="none" xmlns="http://www.w3.org/2000/svg">
<path fill-rule="evenodd" clip-rule="evenodd" d="M76 18.7L74.5902 17.3L71.7705 20H69.555L70.8642 18.7L69.4543 17.3L66.7354 20H55.0539C54.5504 14.4 49.8173 10 44.0773 10C37.9344 10 33 14.9 33 21C33 27.1 37.9344 32 44.0773 32C49.8173 32 54.5504 27.6 55.0539 22H66.7354L69.4543 24.7L70.8642 23.3L69.6557 22H71.8712L74.5902 24.7L76 23.3L73.6838 21L76 18.7ZM47.904 22C47.5012 23.7 45.8899 25 43.9766 25C41.7611 25 39.9485 23.2 39.9485 21C39.9485 18.8 41.7611 17 43.9766 17C45.8899 17 47.4005 18.3 47.904 20H43.9766V22H47.904ZM37.9344 21C37.9344 17.7 40.6534 15 43.9766 15C46.9977 15 49.4145 17.2 49.918 20H52.9391C52.4356 15.5 48.6089 12 43.9766 12C38.9415 12 34.9133 16 34.9133 21C34.9133 26 38.9415 30 43.9766 30C48.7096 30 52.5363 26.5 52.9391 22H49.918C49.4145 24.8 46.9977 27 43.9766 27C40.6534 27 37.9344 24.3 37.9344 21Z" fill="#FB7710" fill-opacity="0.26"/>
<path d="M41 6.98473L40.7023 5C34.2519 6.0916 29.0916 11.3511 28 17.7023L29.9847 18C30.8779 12.542 35.542 7.87786 41 6.98473Z" fill="#FB7710" fill-opacity="0.26"/>
<path d="M40.7045 37L41 35.0303C35.4848 34.1439 30.8561 29.5152 29.9697 24L28 24.2955C29.0833 30.697 34.303 35.9167 40.7045 37Z" fill="#FB7710" fill-opacity="0.26"/>
<path d="M60 24.2977L58.0153 24C57.1221 29.458 52.458 34.1221 47 35.0153L47.2977 37C53.7481 35.9084 59.0076 30.6489 60 24.2977Z" fill="#FB7710" fill-opacity="0.26"/>
<path d="M47.2955 5L47 6.9697C52.5152 7.85606 57.1439 12.4848 58.0303 18L60 17.7045C58.9167 11.303 53.697 6.08333 47.2955 5Z" fill="#FB7710" fill-opacity="0.26"/>
<rect x="43" y="5" width="2" height="2" fill="#FB7710" fill-opacity="0.26"/>
<rect x="27" y="20" width="2" height="2" fill="#FB7710" fill-opacity="0.26"/>
<rect x="43" y="36" width="2" height="2" fill="#FB7710" fill-opacity="0.26"/>
<path fill-rule="evenodd" clip-rule="evenodd" d="M50.8772 47.0604C51.1823 42.9771 53.2169 38.6896 56.2687 36.0354C59.0154 33.5854 60.9482 30.625 62.0672 27.3583L64 27.9708C62.7793 31.6458 60.5413 34.9125 57.5912 37.5667C54.9463 39.8125 53.2169 43.4875 52.9117 46.9583H54.8445V49H32.4645V46.9583H34.3973C34.0921 43.3854 32.3628 39.8125 29.7178 37.4646C25.2418 33.5854 22.5969 28.175 22.2917 22.4583H19.2399V24.5C19.2399 24.8062 19.1382 25.2146 18.7313 25.4188C18.6891 25.4188 18.6296 25.4363 18.5597 25.4568C18.461 25.4858 18.3418 25.5208 18.2226 25.5208C18.1209 25.5208 17.9175 25.5208 17.714 25.4188L11.6104 22.3563C11.2035 22.1521 11 21.8458 11 21.4375C11 21.0292 11.3052 20.7229 11.6104 20.5187L17.714 17.4562C18.0192 17.2521 18.4261 17.2521 18.7313 17.4562C19.0365 17.6604 19.2399 18.0688 19.2399 18.375V20.4167H22.3935C22.9021 9.08542 32.261 0 43.6545 0C53.0134 0 61.2534 6.02292 63.7965 15.1083L61.8637 15.7208C59.4223 7.55417 51.9962 2.14375 43.5528 2.14375C32.8714 2.14375 24.2246 10.8208 24.2246 21.5396C24.2246 27.0521 26.666 32.2583 31.0403 36.0354C34.0921 38.7917 36.1267 42.9771 36.4319 47.0604H39.5854V42.9771H41.62V47.0604H45.6891V42.9771H47.7236V47.0604H50.8772ZM17.2054 22.8667H17.3071V20.0083L14.4587 21.4375L17.2054 22.8667Z" fill="#FB7710" fill-opacity="0.26"/>
<rect x="33" y="51" width="22" height="2" fill="#FB7710" fill-opacity="0.26"/>
<path fill-rule="evenodd" clip-rule="evenodd" d="M33 57H35V61H40V62C40 62.8 40.3 63.6 40.9 64.1C41.5 64.6 42.2 65 43 65H45C45.8 65 46.6 64.7 47.1 64.1C47.6 63.5 48 62.8 48 62V61H53V57H55V55H33V57ZM46 62C46 62.3 45.9 62.5 45.7 62.7C45.5 62.9 45.3 63 45 63H43C42.7 63 42.5 62.9 42.3 62.7C42.1 62.5 42 62.3 42 62V61H46V62ZM51 57H37V59H51V57Z" fill="#FB7710" fill-opacity="0.26"/>
<path fill-rule="evenodd" clip-rule="evenodd" d="M65 29.7L63.5902 28.3L60.7705 31H58.555L59.8642 29.7L58.4543 28.3L55.7354 31H44.0539C43.5504 25.4 38.8173 21 33.0773 21C26.9344 21 22 25.9 22 32C22 38.1 26.9344 43 33.0773 43C38.8173 43 43.5504 38.6 44.0539 33H55.7354L58.4543 35.7L59.8642 34.3L58.6557 33H60.8712L63.5902 35.7L65 34.3L62.6838 32L65 29.7ZM36.904 33C36.5012 34.7 34.8899 36 32.9766 36C30.7611 36 28.9485 34.2 28.9485 32C28.9485 29.8 30.7611 28 32.9766 28C34.8899 28 36.4005 29.3 36.904 31H32.9766V33H36.904ZM26.9344 32C26.9344 28.7 29.6534 26 32.9766 26C35.9977 26 38.4145 28.2 38.918 31H41.9391C41.4356 26.5 37.6089 23 32.9766 23C27.9415 23 23.9133 27 23.9133 32C23.9133 37 27.9415 41 32.9766 41C37.7096 41 41.5363 37.5 41.9391 33H38.918C38.4145 35.8 35.9977 38 32.9766 38C29.6534 38 26.9344 35.3 26.9344 32Z" fill="#FB7710"/>
<path d="M30 17.9847L29.7023 16C23.2519 17.0916 18.0916 22.3511 17 28.7023L18.9847 29C19.8779 23.542 24.542 18.8779 30 17.9847Z" fill="#FB7710"/>
<path d="M29.7045 48L30 46.0303C24.4848 45.1439 19.8561 40.5152 18.9697 35L17 35.2955C18.0833 41.697 23.303 46.9167 29.7045 48Z" fill="#FB7710"/>
<path d="M49 35.2977L47.0153 35C46.1221 40.458 41.458 45.1221 36 46.0153L36.2977 48C42.7481 46.9084 48.0076 41.6489 49 35.2977Z" fill="#FB7710"/>
<path d="M36.2955 16L36 17.9697C41.5152 18.8561 46.1439 23.4848 47.0303 29L49 28.7045C47.9167 22.303 42.697 17.0833 36.2955 16Z" fill="#FB7710"/>
<rect x="32" y="16" width="2" height="2" fill="#FB7710"/>
<rect x="16" y="31" width="2" height="2" fill="#FB7710"/>
<rect x="32" y="47" width="2" height="2" fill="#FB7710"/>
<path fill-rule="evenodd" clip-rule="evenodd" d="M39.8772 58.0604C40.1823 53.9771 42.2169 49.6896 45.2687 47.0354C48.0154 44.5854 49.9482 41.625 51.0672 38.3583L53 38.9708C51.7793 42.6458 49.5413 45.9125 46.5912 48.5667C43.9463 50.8125 42.2169 54.4875 41.9117 57.9583H43.8445V60H21.4645V57.9583H23.3973C23.0921 54.3854 21.3628 50.8125 18.7178 48.4646C14.2418 44.5854 11.5969 39.175 11.2917 33.4583H8.23992V35.5C8.23992 35.8062 8.1382 36.2146 7.73129 36.4188C7.68915 36.4188 7.62956 36.4363 7.55974 36.4568C7.46101 36.4858 7.34183 36.5208 7.22265 36.5208C7.12092 36.5208 6.91747 36.5208 6.71401 36.4188L0.610365 33.3563C0.203455 33.1521 0 32.8458 0 32.4375C0 32.0292 0.305182 31.7229 0.610365 31.5187L6.71401 28.4562C7.01919 28.2521 7.4261 28.2521 7.73129 28.4562C8.03647 28.6604 8.23992 29.0688 8.23992 29.375V31.4167H11.3935C11.9021 20.0854 21.261 11 32.6545 11C42.0134 11 50.2534 17.0229 52.7965 26.1083L50.8637 26.7208C48.4223 18.5542 40.9962 13.1437 32.5528 13.1437C21.8714 13.1437 13.2246 21.8208 13.2246 32.5396C13.2246 38.0521 15.666 43.2583 20.0403 47.0354C23.0921 49.7917 25.1267 53.9771 25.4319 58.0604H28.5854V53.9771H30.62V58.0604H34.6891V53.9771H36.7236V58.0604H39.8772ZM6.20537 33.8667H6.3071V31.0083L3.45873 32.4375L6.20537 33.8667Z" fill="#FB7710"/>
<rect x="22" y="62" width="22" height="2" fill="#FB7710"/>
<path fill-rule="evenodd" clip-rule="evenodd" d="M22 68H24V72H29V73C29 73.8 29.3 74.6 29.9 75.1C30.5 75.6 31.2 76 32 76H34C34.8 76 35.6 75.7 36.1 75.1C36.6 74.5 37 73.8 37 73V72H42V68H44V66H22V68ZM35 73C35 73.3 34.9 73.5 34.7 73.7C34.5 73.9 34.3 74 34 74H32C31.7 74 31.5 73.9 31.3 73.7C31.1 73.5 31 73.3 31 73V72H35V73ZM40 68H26V70H40V68Z" fill="#FB7710"/>
</svg>
