<svg width="60" height="72" viewBox="0 0 60 72" fill="none" xmlns="http://www.w3.org/2000/svg">
<g opacity="0.26">
<path d="M34.9076 1.92793C44.4238 1.92793 52.5946 9.06787 53.9401 18.4272L55.8635 18.1386C54.3253 7.81534 45.3868 0 34.9102 0C24.4336 0 15.4952 7.81534 13.957 18.2366L15.8804 18.5252C17.2205 9.06799 25.3912 1.92793 34.9076 1.92793Z" fill="#FB7710"/>
<path d="M42.2198 38.9633L41.6418 39.1572V44.2865H38.757V41.3832H36.8328V44.2865H32.9873V41.3832H31.0631V44.2865H28.1783V39.1572L27.6002 38.8677C21.5429 36.3522 17.3119 31.0288 16.0609 24.6403L14.1367 25.0281C15.4828 31.9001 20.0014 37.5129 26.2542 40.4162V44.2865H24.3327V46.223H26.2569H43.566H45.4901V44.2865H43.566V40.5118C49.9137 37.7041 54.3374 31.9956 55.6835 25.1237L53.7593 24.7359C52.6031 31.1244 48.2772 36.4478 42.2198 38.9633Z" fill="#FB7710"/>
<rect x="24.3887" y="48.2014" width="21.223" height="1.97842" fill="#FB7710"/>
<path fill-rule="evenodd" clip-rule="evenodd" d="M24.3887 53.922H26.3188V57.8063H31.14V58.7768C31.14 59.5526 31.4286 60.3311 32.0084 60.8162C32.5882 61.4001 33.2633 61.6906 34.0338 61.6906H35.9639C36.7344 61.6906 37.5075 61.4001 37.9893 60.8162C38.5691 60.2324 38.8577 59.5526 38.8577 58.7768V57.8063H43.6816V53.922H45.6117V51.9784H24.3887V53.922ZM36.9275 58.7766C36.9275 59.0672 36.8323 59.2618 36.639 59.4564C36.4457 59.651 36.2525 59.747 35.9639 59.747H34.0338C33.7453 59.747 33.552 59.651 33.3587 59.4564C33.1654 59.2618 33.0702 59.0672 33.0702 58.7766V57.8062H36.9277V58.7766H36.9275ZM28.2462 55.8628H41.7514V53.9192H28.2462V55.8628Z" fill="#FB7710"/>
<rect x="50.2876" y="20.1439" width="1.97842" height="1.97842" fill="#FB7710"/>
<rect x="54.2446" y="20.1439" width="1.97842" height="1.97842" fill="#FB7710"/>
<rect x="58.0215" y="20.1439" width="1.97842" height="1.97842" fill="#FB7710"/>
<rect x="10" y="20.1439" width="1.97842" height="1.97842" fill="#FB7710"/>
<rect x="13.7769" y="20.1439" width="1.97842" height="1.97842" fill="#FB7710"/>
<rect x="17.5542" y="20.1439" width="1.97842" height="1.97842" fill="#FB7710"/>
<path fill-rule="evenodd" clip-rule="evenodd" d="M47.8809 30.848C47.5933 30.9433 47.3057 30.848 47.1131 30.6546C46.3453 29.979 45.1923 30.0744 44.5196 30.7499C43.8468 31.4254 43.7519 32.5858 44.4246 33.3568C44.6172 33.5475 44.6172 33.839 44.6172 34.1277C44.6172 34.4164 44.4246 34.6098 44.232 34.8032C42.4035 36.1544 40.2902 37.0233 38.0792 37.4101C37.7915 37.4101 37.504 37.4101 37.3114 37.2167C37.1188 37.0233 36.9261 36.8299 36.9261 36.5412C36.8285 35.5742 35.9631 34.8032 35.0027 34.8032C33.9446 34.8032 33.1741 35.5768 33.0792 36.5412C33.0792 36.8299 32.8866 37.0233 32.694 37.2167C32.5014 37.3148 32.3088 37.4101 32.1162 37.4101H31.9236C29.7126 36.928 27.5965 36.0589 25.7707 34.8032C25.5781 34.6098 25.3855 34.4164 25.3855 34.1277C25.3855 33.8389 25.3855 33.5502 25.5781 33.3568C26.251 32.5832 26.1559 31.4254 25.4832 30.7499C24.8104 30.0744 23.6547 30.0744 22.8869 30.6546C22.697 30.848 22.4067 30.848 22.1191 30.848C21.8316 30.848 21.639 30.6546 21.4464 30.4612C20.1008 28.6252 19.2354 26.5032 18.8502 24.2831C18.8502 23.9943 18.8502 23.7056 19.0428 23.5122C19.2354 23.3188 19.428 23.1254 19.7155 23.1254C20.6786 23.0273 21.4464 22.1584 21.4464 21.194C21.4464 20.1316 20.676 19.358 19.7155 19.2627C19.428 19.2627 19.2354 19.0693 19.0428 18.8759C18.8502 18.6851 18.7553 18.3937 18.8502 18.1049C19.3303 15.8849 20.1958 13.7601 21.4464 11.9269C21.639 11.7335 21.8316 11.5401 22.1191 11.5401C22.4068 11.5401 22.6943 11.5401 22.8869 11.7335C23.6574 12.4091 24.8104 12.3137 25.4832 11.6382C26.1559 10.9627 26.2508 9.80226 25.5781 9.03131C25.3855 8.84057 25.3855 8.54908 25.3855 8.26037C25.3855 8.06697 25.5781 7.77548 25.7707 7.68017C27.5992 6.32902 29.7126 5.46011 31.9236 5.07331C32.2112 5.07331 32.4987 5.07331 32.6914 5.26671C32.884 5.46011 33.0766 5.65351 33.0766 5.94222C33.1743 6.90922 34.037 7.68017 35 7.68017C35.9631 7.68017 36.8286 6.90657 36.9235 5.94222C36.9235 5.65351 37.0212 5.46011 37.3087 5.26671C37.4987 5.07331 37.789 4.978 38.0765 5.07331C40.2875 5.55542 42.4036 6.42446 44.2294 7.68017C44.422 7.77826 44.6146 7.97166 44.6146 8.26037C44.6146 8.5492 44.6146 8.83791 44.422 9.03131C43.7491 9.80491 43.8442 10.9627 44.5169 11.6382C45.1897 12.3137 46.3453 12.3137 47.1131 11.7335C47.3031 11.5401 47.5934 11.5401 47.8809 11.5401C48.1685 11.5401 48.3611 11.7335 48.5537 11.9269C49.8993 13.7629 50.7647 15.8849 51.1499 18.1049C51.1499 18.3938 51.1499 18.6825 50.9573 18.8759C50.7647 19.0693 50.5721 19.2627 50.2845 19.2627C49.3215 19.3608 48.5537 20.2297 48.5537 21.194C48.5537 22.2565 49.3241 23.0301 50.2845 23.1254C50.5721 23.1254 50.7647 23.3188 50.9573 23.5122C51.1499 23.7029 51.2448 23.9944 51.1499 24.2831C50.6698 26.5032 49.8043 28.6279 48.5537 30.4612C48.3611 30.6546 48.1685 30.848 47.8809 30.848ZM42.4035 33.6455C41.7307 32.199 42.0183 30.5565 43.1713 29.3988C44.2293 28.2411 45.9601 27.9523 47.4034 28.5297C48.0763 27.372 48.5564 26.1163 48.9417 24.7651C47.4985 24.1849 46.5381 22.8338 46.5381 21.1939C46.5381 19.5541 47.4984 18.2029 48.844 17.5274C48.5563 16.2716 47.9785 14.9205 47.3057 13.7628C45.8652 14.4383 44.1343 14.0542 43.0764 12.9919C41.9233 11.8341 41.7307 10.1916 42.3086 8.74514C41.1555 8.0695 39.9049 7.58739 38.5593 7.20059C37.9815 8.6497 36.6358 9.61405 35.0027 9.61405C33.3695 9.61405 32.0239 8.6497 31.4461 7.39399C30.1953 7.68282 28.8498 8.26302 27.6968 8.93854C28.3696 10.385 28.082 12.0275 26.929 13.1853C25.871 14.2449 24.1402 14.5364 22.6996 13.9562C22.0267 15.1139 21.5466 16.3697 21.1614 17.7208C22.6046 18.301 23.565 19.6521 23.565 21.292C23.565 22.9319 22.6046 24.283 21.1614 24.8632C21.449 26.119 22.0269 27.4701 22.6996 28.6278C24.1402 27.9523 25.871 28.3364 26.929 29.3988C28.082 30.5565 28.2746 32.199 27.6968 33.6455C28.8498 34.3211 30.1004 34.8032 31.4461 35.19C32.0239 33.7409 33.3695 32.7766 35.0027 32.7766C36.6358 32.7766 37.9815 33.7436 38.6542 35.19C39.9049 34.9012 41.2505 34.321 42.4035 33.6455Z" fill="#FB7710"/>
<path fill-rule="evenodd" clip-rule="evenodd" d="M26.3667 21.223C26.3667 16.426 30.2027 12.5899 34.9998 12.5899C39.7941 12.5899 43.6329 16.4152 43.6329 21.223C43.6329 26.0201 39.7968 29.8561 34.9998 29.8561C30.2027 29.8561 26.3667 26.0201 26.3667 21.223ZM28.2861 21.2258C28.2861 24.967 31.2585 27.9395 34.9998 27.9395C38.7383 27.9395 41.7135 24.9643 41.7135 21.2258C41.7135 17.4846 38.741 14.5121 34.9998 14.5121C31.2586 14.5121 28.2861 17.4846 28.2861 21.2258Z" fill="#FB7710"/>
<path fill-rule="evenodd" clip-rule="evenodd" d="M31.043 21.1331C31.043 19.0073 32.7813 17.2662 34.9099 17.2662C37.0357 17.2662 38.7768 19.0073 38.7768 21.1331C38.7768 23.2589 37.0357 25 34.9099 25C32.7841 25 31.043 23.2589 31.043 21.1331ZM32.975 21.133C32.975 22.1973 33.8456 23.0678 34.9099 23.0678C35.9715 23.0678 36.8446 22.1973 36.8447 21.133C36.8447 20.0686 35.9741 19.1981 34.9099 19.1981C33.8455 19.1981 32.975 20.0687 32.975 21.133Z" fill="#FB7710"/>
</g>
<path d="M24.9076 11.9279C34.4238 11.9279 42.5946 19.0679 43.9401 28.4272L45.8635 28.1386C44.3253 17.8153 35.3868 10 24.9102 10C14.4336 10 5.49519 17.8153 3.95703 28.2366L5.88039 28.5252C7.22054 19.068 15.3912 11.9279 24.9076 11.9279Z" fill="#FB7710"/>
<path d="M32.2198 48.9633L31.6418 49.1572V54.2865H28.757V51.3832H26.8328V54.2865H22.9873V51.3832H21.0631V54.2865H18.1783V49.1572L17.6002 48.8677C11.5429 46.3522 7.31193 41.0288 6.06089 34.6403L4.13672 35.0281C5.48284 41.9001 10.0014 47.5129 16.2542 50.4162V54.2865H14.3327V56.223H16.2569H33.566H35.4901V54.2865H33.566V50.5118C39.9137 47.7041 44.3374 41.9956 45.6835 35.1237L43.7593 34.7359C42.6031 41.1244 38.2772 46.4478 32.2198 48.9633Z" fill="#FB7710"/>
<rect x="14.3887" y="58.2014" width="21.223" height="1.97842" fill="#FB7710"/>
<path fill-rule="evenodd" clip-rule="evenodd" d="M14.3887 63.922H16.3188V67.8063H21.14V68.7768C21.14 69.5526 21.4286 70.3311 22.0084 70.8162C22.5882 71.4001 23.2633 71.6906 24.0338 71.6906H25.9639C26.7344 71.6906 27.5075 71.4001 27.9893 70.8162C28.5691 70.2324 28.8577 69.5526 28.8577 68.7768V67.8063H33.6816V63.922H35.6117V61.9784H14.3887V63.922ZM26.9275 68.7766C26.9275 69.0672 26.8323 69.2618 26.639 69.4564C26.4457 69.651 26.2525 69.747 25.9639 69.747H24.0338C23.7453 69.747 23.552 69.651 23.3587 69.4564C23.1654 69.2618 23.0702 69.0672 23.0702 68.7766V67.8062H26.9277V68.7766H26.9275ZM18.2462 65.8628H31.7514V63.9192H18.2462V65.8628Z" fill="#FB7710"/>
<rect x="40.2876" y="30.1439" width="1.97842" height="1.97842" fill="#FB7710"/>
<rect x="44.2446" y="30.1439" width="1.97842" height="1.97842" fill="#FB7710"/>
<rect x="48.0215" y="30.1439" width="1.97842" height="1.97842" fill="#FB7710"/>
<rect y="30.1439" width="1.97842" height="1.97842" fill="#FB7710"/>
<rect x="3.77686" y="30.1439" width="1.97842" height="1.97842" fill="#FB7710"/>
<rect x="7.5542" y="30.1439" width="1.97842" height="1.97842" fill="#FB7710"/>
<path fill-rule="evenodd" clip-rule="evenodd" d="M37.8809 40.848C37.5933 40.9433 37.3057 40.848 37.1131 40.6546C36.3453 39.979 35.1923 40.0744 34.5196 40.7499C33.8468 41.4254 33.7519 42.5858 34.4246 43.3568C34.6172 43.5475 34.6172 43.839 34.6172 44.1277C34.6172 44.4164 34.4246 44.6098 34.232 44.8032C32.4035 46.1544 30.2902 47.0233 28.0792 47.4101C27.7915 47.4101 27.504 47.4101 27.3114 47.2167C27.1188 47.0233 26.9261 46.8299 26.9261 46.5412C26.8285 45.5742 25.9631 44.8032 25.0027 44.8032C23.9446 44.8032 23.1741 45.5768 23.0792 46.5412C23.0792 46.8299 22.8866 47.0233 22.694 47.2167C22.5014 47.3148 22.3088 47.4101 22.1162 47.4101H21.9236C19.7126 46.928 17.5965 46.0589 15.7707 44.8032C15.5781 44.6098 15.3855 44.4164 15.3855 44.1277C15.3855 43.8389 15.3855 43.5502 15.5781 43.3568C16.251 42.5832 16.1559 41.4254 15.4832 40.7499C14.8104 40.0744 13.6547 40.0744 12.8869 40.6546C12.697 40.848 12.4067 40.848 12.1191 40.848C11.8316 40.848 11.639 40.6546 11.4464 40.4612C10.1008 38.6252 9.2354 36.5032 8.85017 34.2831C8.85017 33.9943 8.85017 33.7056 9.04279 33.5122C9.2354 33.3188 9.42801 33.1254 9.71554 33.1254C10.6786 33.0273 11.4464 32.1584 11.4464 31.194C11.4464 30.1316 10.676 29.358 9.71554 29.2627C9.42801 29.2627 9.2354 29.0693 9.04279 28.8759C8.85017 28.6851 8.75525 28.3937 8.85017 28.1049C9.33032 25.8849 10.1958 23.7601 11.4464 21.9269C11.639 21.7335 11.8316 21.5401 12.1191 21.5401C12.4068 21.5401 12.6943 21.5401 12.8869 21.7335C13.6574 22.4091 14.8104 22.3137 15.4832 21.6382C16.1559 20.9627 16.2508 19.8023 15.5781 19.0313C15.3855 18.8406 15.3855 18.5491 15.3855 18.2604C15.3855 18.067 15.5781 17.7755 15.7707 17.6802C17.5992 16.329 19.7126 15.4601 21.9236 15.0733C22.2112 15.0733 22.4987 15.0733 22.6914 15.2667C22.884 15.4601 23.0766 15.6535 23.0766 15.9422C23.1743 16.9092 24.037 17.6802 25 17.6802C25.9631 17.6802 26.8286 16.9066 26.9235 15.9422C26.9235 15.6535 27.0212 15.4601 27.3087 15.2667C27.4987 15.0733 27.789 14.978 28.0765 15.0733C30.2875 15.5554 32.4036 16.4245 34.2294 17.6802C34.422 17.7783 34.6146 17.9717 34.6146 18.2604C34.6146 18.5492 34.6146 18.8379 34.422 19.0313C33.7491 19.8049 33.8442 20.9627 34.5169 21.6382C35.1897 22.3137 36.3453 22.3137 37.1131 21.7335C37.3031 21.5401 37.5934 21.5401 37.8809 21.5401C38.1685 21.5401 38.3611 21.7335 38.5537 21.9269C39.8993 23.7629 40.7647 25.8849 41.1499 28.1049C41.1499 28.3938 41.1499 28.6825 40.9573 28.8759C40.7647 29.0693 40.5721 29.2627 40.2845 29.2627C39.3215 29.3608 38.5537 30.2297 38.5537 31.194C38.5537 32.2565 39.3241 33.0301 40.2845 33.1254C40.5721 33.1254 40.7647 33.3188 40.9573 33.5122C41.1499 33.7029 41.2448 33.9944 41.1499 34.2831C40.6698 36.5032 39.8043 38.6279 38.5537 40.4612C38.3611 40.6546 38.1685 40.848 37.8809 40.848ZM32.4035 43.6455C31.7307 42.199 32.0183 40.5565 33.1713 39.3988C34.2293 38.2411 35.9601 37.9523 37.4034 38.5297C38.0763 37.372 38.5564 36.1163 38.9417 34.7651C37.4985 34.1849 36.5381 32.8338 36.5381 31.1939C36.5381 29.5541 37.4984 28.2029 38.844 27.5274C38.5563 26.2716 37.9785 24.9205 37.3057 23.7628C35.8652 24.4383 34.1343 24.0542 33.0764 22.9919C31.9233 21.8341 31.7307 20.1916 32.3086 18.7451C31.1555 18.0695 29.9049 17.5874 28.5593 17.2006C27.9815 18.6497 26.6358 19.614 25.0027 19.614C23.3695 19.614 22.0239 18.6497 21.4461 17.394C20.1953 17.6828 18.8498 18.263 17.6968 18.9385C18.3696 20.385 18.082 22.0275 16.929 23.1853C15.871 24.2449 14.1402 24.5364 12.6996 23.9562C12.0267 25.1139 11.5466 26.3697 11.1614 27.7208C12.6046 28.301 13.565 29.6521 13.565 31.292C13.565 32.9319 12.6046 34.283 11.1614 34.8632C11.449 36.119 12.0269 37.4701 12.6996 38.6278C14.1402 37.9523 15.871 38.3364 16.929 39.3988C18.082 40.5565 18.2746 42.199 17.6968 43.6455C18.8498 44.3211 20.1004 44.8032 21.4461 45.19C22.0239 43.7409 23.3695 42.7766 25.0027 42.7766C26.6358 42.7766 27.9815 43.7436 28.6542 45.19C29.9049 44.9012 31.2505 44.321 32.4035 43.6455Z" fill="#FB7710"/>
<path fill-rule="evenodd" clip-rule="evenodd" d="M16.3667 31.223C16.3667 26.426 20.2027 22.5899 24.9998 22.5899C29.7941 22.5899 33.6329 26.4152 33.6329 31.223C33.6329 36.0201 29.7968 39.8561 24.9998 39.8561C20.2027 39.8561 16.3667 36.0201 16.3667 31.223ZM18.2861 31.2258C18.2861 34.967 21.2585 37.9395 24.9998 37.9395C28.7383 37.9395 31.7135 34.9643 31.7135 31.2258C31.7135 27.4846 28.741 24.5121 24.9998 24.5121C21.2586 24.5121 18.2861 27.4846 18.2861 31.2258Z" fill="#FB7710"/>
<path fill-rule="evenodd" clip-rule="evenodd" d="M21.043 31.1331C21.043 29.0073 22.7813 27.2662 24.9099 27.2662C27.0357 27.2662 28.7768 29.0073 28.7768 31.1331C28.7768 33.2589 27.0357 35 24.9099 35C22.7841 35 21.043 33.2589 21.043 31.1331ZM22.975 31.133C22.975 32.1973 23.8456 33.0678 24.9099 33.0678C25.9715 33.0678 26.8446 32.1973 26.8447 31.133C26.8447 30.0686 25.9741 29.1981 24.9099 29.1981C23.8455 29.1981 22.975 30.0687 22.975 31.133Z" fill="#FB7710"/>
</svg>
