<svg width="70" height="59" viewBox="0 0 70 59" fill="none" xmlns="http://www.w3.org/2000/svg">
<rect x="22.333" y="22.7534" width="1.93509" height="1.93509" fill="#FB7710" fill-opacity="0.26"/>
<rect x="26.2041" y="22.7534" width="1.93509" height="1.93509" fill="#FB7710" fill-opacity="0.26"/>
<rect x="30.0728" y="22.7534" width="1.93509" height="1.93509" fill="#FB7710" fill-opacity="0.26"/>
<path fill-rule="evenodd" clip-rule="evenodd" d="M62.1956 15.6291C64.2833 16.0749 65.8532 17.9311 65.8532 20.1478C65.8532 22.3661 64.283 24.2239 62.1956 24.6701V40.2649H62.1952H55.8405V36.9995L39.9206 30.4353V32.9014H31.1462V33.9766H34.3739V40.2118H31.1462V48.8547H23.1902V32.9013H14.4196V27.0091H10V13.2917H14.4196V7.39861H39.9206V9.86761L55.8405 3.3006V0.0352173H62.1956V15.6291ZM32.4385 35.9117H31.3636V38.2767H32.4385V35.9117ZM11.9351 25.0744V15.2269H14.4196V25.0744H11.9351ZM25.1255 46.9198H29.2108V32.9014H25.1255V46.9198ZM37.9857 30.966H16.3551V9.33393H37.9857V10.6659L37.9854 10.666V29.6376L37.9857 29.6377V30.966ZM62.1956 22.6574C63.2023 22.2681 63.9178 21.29 63.9178 20.1478C63.9178 19.0075 63.2027 18.0309 62.1956 17.6419V22.6574ZM39.9208 28.3426V11.9613L55.8405 5.39393V34.9067L39.9208 28.3426ZM57.7756 38.3298H60.2601V1.97042H57.7756V2.50247V37.7974V38.3298Z" fill="#FB7710" fill-opacity="0.26"/>
<rect x="67.3081" y="19.1813" width="2.57614" height="1.93509" fill="#FB7710" fill-opacity="0.26"/>
<path d="M68.2388 25.3138L66.0073 24.0254L66.9749 22.3496L69.2063 23.638L68.2388 25.3138Z" fill="#FB7710" fill-opacity="0.26"/>
<path d="M64.7202 28.1313L63.4294 25.8987L65.1043 24.9303L66.3951 27.163L64.7202 28.1313Z" fill="#FB7710" fill-opacity="0.26"/>
<path d="M69.2119 16.6644L66.9799 17.9534L66.0122 16.2778L68.2443 14.9888L69.2119 16.6644Z" fill="#FB7710" fill-opacity="0.26"/>
<path d="M64.7178 12.1714L66.3925 13.1401L65.1016 15.3718L63.4268 14.4031L64.7178 12.1714Z" fill="#FB7710" fill-opacity="0.26"/>
<path fill-rule="evenodd" clip-rule="evenodd" d="M35.664 21.4626H18.6772V12.2166H35.664V21.4626ZM33.7286 14.1517H20.6125V19.5274H33.7286V14.1517Z" fill="#FB7710" fill-opacity="0.26"/>
<rect x="12.333" y="32.7534" width="1.93509" height="1.93509" fill="#FB7710"/>
<rect x="16.2041" y="32.7534" width="1.93509" height="1.93509" fill="#FB7710"/>
<rect x="20.0728" y="32.7534" width="1.93509" height="1.93509" fill="#FB7710"/>
<path fill-rule="evenodd" clip-rule="evenodd" d="M52.1956 25.6291C54.2833 26.0749 55.8532 27.9311 55.8532 30.1478C55.8532 32.3661 54.283 34.2239 52.1956 34.6701V50.2649H52.1952H45.8405V46.9995L29.9206 40.4353V42.9014H21.1462V43.9766H24.3739V50.2118H21.1462V58.8547H13.1902V42.9013H4.41965V37.0091H0V23.2917H4.41965V17.3986H29.9206V19.8676L45.8405 13.3006V10.0352H52.1956V25.6291ZM22.4385 45.9117H21.3636V48.2767H22.4385V45.9117ZM1.93509 35.0744V25.2269H4.41965V35.0744H1.93509ZM15.1255 56.9198H19.2108V42.9014H15.1255V56.9198ZM27.9857 40.966H6.35509V19.3339H27.9857V20.6659L27.9854 20.666V39.6376L27.9857 39.6377V40.966ZM52.1956 32.6574C53.2023 32.2681 53.9178 31.29 53.9178 30.1478C53.9178 29.0075 53.2027 28.0309 52.1956 27.6419V32.6574ZM29.9208 38.3426V21.9613L45.8405 15.3939V44.9067L29.9208 38.3426ZM47.7756 48.3298H50.2601V11.9704H47.7756V12.5025V47.7974V48.3298Z" fill="#FB7710"/>
<rect x="57.3081" y="29.1813" width="2.57614" height="1.93509" fill="#FB7710"/>
<path d="M58.2388 35.3138L56.0073 34.0254L56.9749 32.3496L59.2063 33.638L58.2388 35.3138Z" fill="#FB7710"/>
<path d="M54.7202 38.1313L53.4294 35.8987L55.1043 34.9303L56.3951 37.163L54.7202 38.1313Z" fill="#FB7710"/>
<path d="M59.2119 26.6644L56.9799 27.9534L56.0122 26.2778L58.2443 24.9888L59.2119 26.6644Z" fill="#FB7710"/>
<path d="M54.7178 22.1714L56.3925 23.1401L55.1016 25.3718L53.4268 24.4031L54.7178 22.1714Z" fill="#FB7710"/>
<path fill-rule="evenodd" clip-rule="evenodd" d="M25.664 31.4626H8.67725V22.2166H25.664V31.4626ZM23.7286 24.1517H10.6125V29.5274H23.7286V24.1517Z" fill="#FB7710"/>
</svg>
