<svg width="74" height="71" viewBox="0 0 74 71" fill="none" xmlns="http://www.w3.org/2000/svg">
<g filter="url(#filter0_d)">
<path fill-rule="evenodd" clip-rule="evenodd" d="M40.5341 44.3673C48.0712 44.3673 54.431 38.7294 55.3262 31.2536L55.427 30.4154H66.8468L66.7706 31.4369C65.7575 45.0879 54.2335 55.7817 40.5341 55.7817C34.2424 55.7817 28.1495 53.5194 23.3779 49.4115L22.6016 48.7428L30.6775 40.6671L31.3408 41.1879C33.9889 43.2678 37.1681 44.3673 40.5341 44.3673ZM40.5342 53.879C52.8996 53.879 63.3536 44.489 64.7759 32.3175V32.3174H57.0942C55.7253 40.3292 48.7503 46.2689 40.5345 46.2689C37.0215 46.2689 33.6888 45.2074 30.8442 43.1902L25.4115 48.6227C29.7102 52.0194 35.0409 53.879 40.5342 53.879Z" fill="#FB7710" fill-opacity="0.26"/>
<path fill-rule="evenodd" clip-rule="evenodd" d="M29.332 39.3207L21.2551 47.3976L20.5868 46.6206C16.4791 41.8481 14.2168 35.7548 14.2168 29.4638C14.2168 15.7644 24.9099 4.24017 38.5618 3.22708L39.5833 3.15173V14.571L38.7451 14.6717C31.2691 15.5673 25.6318 21.9267 25.6318 29.4638C25.6318 32.8302 26.731 36.0096 28.8109 38.6571L29.332 39.3207ZM37.6807 12.9044V5.22208C25.5093 6.64404 16.1191 17.099 16.1191 29.4637C16.1191 34.9574 17.9787 40.288 21.3751 44.587L26.8084 39.1537C24.7911 36.3101 23.7291 32.9774 23.7291 29.4641C23.7291 21.2481 29.6695 14.2736 37.6807 12.9044Z" fill="#FB7710" fill-opacity="0.26"/>
<path d="M15.3249 42.9294L13.6479 43.8277C13.9606 44.4112 14.2968 44.9925 14.6476 45.5557L16.2622 44.5498C15.933 44.0217 15.6176 43.4764 15.3249 42.9294Z" fill="#FB7710" fill-opacity="0.26"/>
<path d="M13.7793 39.5217L11.9985 40.191C12.2326 40.8131 12.4903 41.4342 12.7635 42.0366L14.496 41.2508C14.2397 40.6863 13.9989 40.1043 13.7793 39.5217Z" fill="#FB7710" fill-opacity="0.26"/>
<path d="M12.0931 32.2509L10.1992 32.4342C10.2631 33.096 10.3498 33.7613 10.4563 34.4127L12.334 34.1055C12.2341 33.495 12.1527 32.8707 12.0931 32.2509Z" fill="#FB7710" fill-opacity="0.26"/>
<path d="M12.6952 35.9409L10.8418 36.3702C10.9912 37.0152 11.1646 37.6644 11.3566 38.2988L13.1776 37.7477C12.9977 37.1529 12.8356 36.5448 12.6952 35.9409Z" fill="#FB7710" fill-opacity="0.26"/>
<path d="M17.3033 46.1049L15.7573 47.2139C16.1446 47.7533 16.5538 48.2855 16.9738 48.7968L18.4435 47.5887C18.0496 47.1102 17.666 46.6104 17.3033 46.1049Z" fill="#FB7710" fill-opacity="0.26"/>
<path d="M31.6841 58.6329C32.3225 58.8267 32.9716 58.9998 33.6133 59.148L34.042 57.2944C33.4411 57.1557 32.8339 56.9934 32.236 56.8123L31.6841 58.6329Z" fill="#FB7710" fill-opacity="0.26"/>
<path d="M35.5703 59.5365C36.2219 59.643 36.8873 59.7297 37.5488 59.7938L37.7327 57.9008C37.1125 57.8402 36.4882 57.7589 35.8778 57.6587L35.5703 59.5365Z" fill="#FB7710" fill-opacity="0.26"/>
<path d="M19.6784 48.9954L18.2905 50.2967C18.7421 50.7783 19.2167 51.2525 19.7011 51.7067L21.0022 50.3189C20.5476 49.8927 20.102 49.4478 19.6784 48.9954Z" fill="#FB7710" fill-opacity="0.26"/>
<path d="M27.9541 57.2292C28.558 57.5029 29.1775 57.7602 29.7964 57.993L30.467 56.2132C29.8868 55.9945 29.306 55.7536 28.7408 55.4971L27.9541 57.2292Z" fill="#FB7710" fill-opacity="0.26"/>
<path d="M21.2012 53.0229C21.7118 53.4429 22.2443 53.8521 22.7827 54.2385L23.8921 52.6925C23.3866 52.3301 22.8877 51.9467 22.4087 51.5531L21.2012 53.0229Z" fill="#FB7710" fill-opacity="0.26"/>
<path d="M24.4409 55.3473C25.0049 55.6989 25.5861 56.0352 26.168 56.3463L27.065 54.6684C26.5202 54.3769 25.9754 54.0624 25.4471 53.733L24.4409 55.3473Z" fill="#FB7710" fill-opacity="0.26"/>
<rect x="39.6284" y="58.0983" width="1.90195" height="1.90266" fill="#FB7710" fill-opacity="0.26"/>
<rect x="10.0068" y="28.4763" width="1.90266" height="1.9023" fill="#FB7710" fill-opacity="0.26"/>
<path d="M45.1388 14.2866L55.4441 3.98157C54.8745 3.64771 54.2922 3.33294 53.6987 3.03693L42.9443 13.7913C43.6948 13.9056 44.4271 14.0712 45.1388 14.2866Z" fill="#FB7710" fill-opacity="0.26"/>
<path d="M48.4606 15.7308L58.3027 5.88843C57.7897 5.50089 57.2614 5.13245 56.7229 4.77808L46.6631 14.8383C47.2831 15.0987 47.8835 15.3969 48.4606 15.7308Z" fill="#FB7710" fill-opacity="0.26"/>
<path d="M42.4365 12.2229L52.2817 2.37748C51.6502 2.10326 51.0094 1.84439 50.3554 1.61365L42.4365 9.53271V12.2229Z" fill="#FB7710" fill-opacity="0.26"/>
<path d="M42.436 0V0.000585938V2.69074L44.8654 0.261094C44.0654 0.143437 43.2563 0.0525 42.436 0Z" fill="#FB7710" fill-opacity="0.26"/>
<path d="M51.214 17.745L60.8792 8.07927C60.4196 7.64123 59.9495 7.21349 59.4622 6.80603L49.7261 16.5422C50.2463 16.9135 50.7434 17.3151 51.214 17.745Z" fill="#FB7710" fill-opacity="0.26"/>
<path d="M42.4366 7.45676L48.7807 1.11328C48.0739 0.908083 47.358 0.725623 46.6305 0.572693L42.4365 4.76672V7.45676H42.4366Z" fill="#FB7710" fill-opacity="0.26"/>
<path d="M56.2024 27.0531L66.9578 16.2981C66.6622 15.7044 66.3476 15.1224 66.0134 14.5524L55.708 24.858C55.9237 25.5699 56.0886 26.3029 56.2024 27.0531Z" fill="#FB7710" fill-opacity="0.26"/>
<path d="M53.4543 20.271L63.1902 10.5344C62.7825 10.0469 62.3547 9.57714 61.917 9.11694L52.252 18.7827C52.6811 19.2537 53.0832 19.7505 53.4543 20.271Z" fill="#FB7710" fill-opacity="0.26"/>
<path d="M60.4624 27.5616L68.3818 19.6419C68.1504 18.9879 67.8922 18.3477 67.6179 17.7156L57.772 27.5616H60.4624Z" fill="#FB7710" fill-opacity="0.26"/>
<path d="M65.2282 27.5616L69.4223 23.3673C69.2692 22.6398 69.0869 21.9241 68.8819 21.2175L62.5381 27.5616H65.2282Z" fill="#FB7710" fill-opacity="0.26"/>
<path d="M69.9941 27.561C69.942 26.7412 69.8504 25.9323 69.7331 25.1316L67.3037 27.5612H69.9941V27.561V27.561Z" fill="#FB7710" fill-opacity="0.26"/>
<path d="M55.1571 23.334L65.2178 13.2735C64.8636 12.7347 64.4955 12.2067 64.1072 11.6927L54.2651 21.5354C54.5987 22.1127 54.8967 22.7131 55.1571 23.334Z" fill="#FB7710" fill-opacity="0.26"/>
<path d="M39.5835 19.9504V21.7149H39.3999C38.2506 21.7149 37.1601 22.1645 36.3207 22.9899C35.5026 23.8155 35.0522 24.9078 35.0522 26.0649C35.0522 27.2304 35.5038 28.322 36.3246 29.1402C37.1478 29.9622 38.2403 30.4146 39.3996 30.4146H41.6657C42.3171 30.4146 42.9315 30.6702 43.3979 31.1343C43.8596 31.5933 44.1131 32.2068 44.1131 32.862C44.1131 33.5118 43.8569 34.128 43.4002 34.59C42.934 35.0502 42.3178 35.3041 41.6656 35.3041H39.3994C38.7463 35.3041 38.1302 35.0506 37.6721 34.5973C37.2092 34.1305 36.9546 33.5146 36.9546 32.8624H35.0522C35.0522 34.0196 35.5028 35.1113 36.3272 35.9434C37.1511 36.7582 38.2421 37.2067 39.3998 37.2067H39.5834V38.9764H41.4857V37.2067H41.6661C42.822 37.2067 43.9128 36.7585 44.7449 35.9359C45.5649 35.1082 46.0157 34.0169 46.0157 32.8621C46.0157 31.6973 45.5621 30.6049 44.7398 29.7865C43.9157 28.9648 42.8231 28.5124 41.6657 28.5124H39.3996C38.7474 28.5124 38.1326 28.2574 37.6682 27.7934C37.2084 27.3349 36.9548 26.7212 36.9548 26.0651C36.9548 25.413 37.2094 24.7964 37.6634 24.338C38.1356 23.8736 38.7524 23.6176 39.3998 23.6176H41.666C42.3125 23.6176 42.9292 23.8736 43.3933 24.329C43.8571 24.7984 44.1133 25.4149 44.1133 26.0651H46.0158C46.0158 24.9105 45.5649 23.8184 44.7349 22.9811C43.9035 22.1648 42.8133 21.7151 41.6658 21.7151H41.4855V19.9505H39.5835V19.9504Z" fill="#FB7710" fill-opacity="0.26"/>
</g>
<path fill-rule="evenodd" clip-rule="evenodd" d="M30.5336 54.3673C38.0707 54.3673 44.4305 48.7294 45.3257 41.2536L45.4265 40.4154H56.8463L56.7701 41.4369C55.757 55.0879 44.233 65.7817 30.5336 65.7817C24.2419 65.7817 18.149 63.5194 13.3774 59.4115L12.6011 58.7428L20.6771 50.6671L21.3403 51.1879C23.9884 53.2678 27.1676 54.3673 30.5336 54.3673ZM30.5337 63.879C42.8991 63.879 53.3531 54.489 54.7754 42.3175V42.3174H47.0937C45.7248 50.3292 38.7498 56.2689 30.534 56.2689C27.021 56.2689 23.6883 55.2074 20.8437 53.1902L15.411 58.6227C19.7097 62.0194 25.0404 63.879 30.5337 63.879Z" fill="#FB7710"/>
<path fill-rule="evenodd" clip-rule="evenodd" d="M19.332 49.3207L11.2551 57.3976L10.5868 56.6206C6.4791 51.8481 4.2168 45.7548 4.2168 39.4638C4.2168 25.7644 14.9099 14.2402 28.5618 13.2271L29.5833 13.1517V24.571L28.7451 24.6717C21.2691 25.5673 15.6318 31.9267 15.6318 39.4638C15.6318 42.8302 16.731 46.0096 18.8109 48.6571L19.332 49.3207ZM27.6807 22.9044V15.2221C15.5093 16.644 6.1191 27.099 6.1191 39.4637C6.1191 44.9574 7.97875 50.288 11.3751 54.587L16.8084 49.1537C14.7911 46.3101 13.7291 42.9774 13.7291 39.4641C13.7291 31.2481 19.6695 24.2736 27.6807 22.9044Z" fill="#FB7710"/>
<path d="M5.3249 52.9294L3.64795 53.8277C3.96061 54.4112 4.29682 54.9925 4.64756 55.5557L6.26217 54.5498C5.93299 54.0217 5.61764 53.4764 5.3249 52.9294Z" fill="#FB7710"/>
<path d="M3.77932 49.5217L1.99854 50.191C2.23256 50.8131 2.49025 51.4342 2.76354 52.0366L4.49604 51.2508C4.23975 50.6863 3.99893 50.1043 3.77932 49.5217Z" fill="#FB7710"/>
<path d="M2.09309 42.2509L0.199219 42.4342C0.263086 43.096 0.349805 43.7613 0.456328 44.4127L2.33402 44.1055C2.23406 43.495 2.15273 42.8707 2.09309 42.2509Z" fill="#FB7710"/>
<path d="M2.69523 45.9409L0.841797 46.3702C0.991211 47.0152 1.16465 47.6644 1.3566 48.2988L3.17758 47.7477C2.9977 47.1529 2.83563 46.5448 2.69523 45.9409Z" fill="#FB7710"/>
<path d="M7.30326 56.1049L5.75732 57.2139C6.14463 57.7533 6.55385 58.2855 6.97385 58.7968L8.4435 57.5887C8.04963 57.1102 7.66596 56.6104 7.30326 56.1049Z" fill="#FB7710"/>
<path d="M21.6841 68.6329C22.3225 68.8267 22.9716 68.9998 23.6133 69.148L24.042 67.2944C23.4411 67.1557 22.8339 66.9934 22.236 66.8123L21.6841 68.6329Z" fill="#FB7710"/>
<path d="M25.5703 69.5365C26.2219 69.643 26.8873 69.7297 27.5488 69.7938L27.7327 67.9008C27.1125 67.8402 26.4882 67.7589 25.8778 67.6587L25.5703 69.5365Z" fill="#FB7710"/>
<path d="M9.67838 58.9954L8.29053 60.2967C8.74205 60.7783 9.21666 61.2525 9.70111 61.7067L11.0022 60.3189C10.5476 59.8927 10.102 59.4478 9.67838 58.9954Z" fill="#FB7710"/>
<path d="M17.9541 67.2292C18.558 67.5029 19.1775 67.7602 19.7964 67.993L20.467 66.2132C19.8868 65.9945 19.306 65.7536 18.7408 65.4971L17.9541 67.2292Z" fill="#FB7710"/>
<path d="M11.2012 63.0229C11.7118 63.4429 12.2443 63.8521 12.7827 64.2385L13.8921 62.6925C13.3866 62.3301 12.8877 61.9467 12.4087 61.5531L11.2012 63.0229Z" fill="#FB7710"/>
<path d="M14.4404 65.3473C15.0045 65.6989 15.5856 66.0352 16.1675 66.3463L17.0645 64.6684C16.5197 64.3769 15.9749 64.0624 15.4466 63.733L14.4404 65.3473Z" fill="#FB7710"/>
<rect x="29.6284" y="68.0983" width="1.90195" height="1.90266" fill="#FB7710"/>
<rect x="0.00683594" y="38.4763" width="1.90266" height="1.9023" fill="#FB7710"/>
<path d="M35.1388 24.2866L45.4441 13.9816C44.8745 13.6477 44.2922 13.3329 43.6987 13.0369L32.9443 23.7913C33.6948 23.9056 34.4271 24.0712 35.1388 24.2866Z" fill="#FB7710"/>
<path d="M38.4606 25.7308L48.3027 15.8884C47.7897 15.5009 47.2614 15.1325 46.7229 14.7781L36.6631 24.8383C37.2831 25.0987 37.8835 25.3969 38.4606 25.7308Z" fill="#FB7710"/>
<path d="M32.4365 22.2229L42.2817 12.3775C41.6502 12.1033 41.0094 11.8444 40.3554 11.6136L32.4365 19.5327V22.2229Z" fill="#FB7710"/>
<path d="M32.436 10V10.0006V12.6907L34.8654 10.2611C34.0654 10.1434 33.2563 10.0525 32.436 10Z" fill="#FB7710"/>
<path d="M41.214 27.745L50.8792 18.0793C50.4196 17.6412 49.9495 17.2135 49.4622 16.806L39.7261 26.5422C40.2463 26.9135 40.7434 27.3151 41.214 27.745Z" fill="#FB7710"/>
<path d="M32.4366 17.4568L38.7807 11.1133C38.0739 10.9081 37.358 10.7256 36.6305 10.5727L32.4365 14.7667V17.4568H32.4366Z" fill="#FB7710"/>
<path d="M46.2024 37.0531L56.9578 26.2981C56.6622 25.7044 56.3476 25.1224 56.0134 24.5524L45.708 34.858C45.9237 35.5699 46.0886 36.3029 46.2024 37.0531Z" fill="#FB7710"/>
<path d="M43.4543 30.271L53.1902 20.5344C52.7825 20.0469 52.3547 19.5771 51.917 19.1169L42.252 28.7827C42.6811 29.2537 43.0832 29.7505 43.4543 30.271Z" fill="#FB7710"/>
<path d="M50.4624 37.5616L58.3818 29.6419C58.1504 28.9879 57.8922 28.3477 57.6179 27.7156L47.772 37.5616H50.4624Z" fill="#FB7710"/>
<path d="M55.2282 37.5616L59.4223 33.3673C59.2692 32.6398 59.0869 31.9241 58.8819 31.2175L52.5381 37.5616H55.2282Z" fill="#FB7710"/>
<path d="M59.9941 37.561C59.942 36.7412 59.8504 35.9323 59.7331 35.1316L57.3037 37.5612H59.9941V37.561Z" fill="#FB7710"/>
<path d="M45.1566 33.334L55.2173 23.2735C54.8631 22.7347 54.495 22.2067 54.1068 21.6927L44.2646 31.5354C44.5982 32.1127 44.8962 32.7131 45.1566 33.334Z" fill="#FB7710"/>
<path d="M29.5835 29.9504V31.7149H29.3999C28.2506 31.7149 27.1601 32.1645 26.3207 32.9899C25.5026 33.8155 25.0522 34.9078 25.0522 36.0649C25.0522 37.2304 25.5038 38.322 26.3246 39.1402C27.1478 39.9622 28.2403 40.4146 29.3996 40.4146H31.6657C32.3171 40.4146 32.9315 40.6702 33.3979 41.1343C33.8596 41.5933 34.1131 42.2068 34.1131 42.862C34.1131 43.5118 33.8569 44.128 33.4002 44.59C32.934 45.0502 32.3178 45.3041 31.6656 45.3041H29.3994C28.7463 45.3041 28.1302 45.0506 27.6721 44.5973C27.2092 44.1305 26.9546 43.5146 26.9546 42.8624H25.0522C25.0522 44.0196 25.5028 45.1113 26.3272 45.9434C27.1511 46.7582 28.2421 47.2067 29.3998 47.2067H29.5834V48.9764H31.4857V47.2067H31.6661C32.822 47.2067 33.9128 46.7585 34.7449 45.9359C35.5649 45.1082 36.0157 44.0169 36.0157 42.8621C36.0157 41.6973 35.5621 40.6049 34.7398 39.7865C33.9157 38.9648 32.8231 38.5124 31.6657 38.5124H29.3996C28.7474 38.5124 28.1326 38.2574 27.6682 37.7934C27.2084 37.3349 26.9548 36.7212 26.9548 36.0651C26.9548 35.413 27.2094 34.7964 27.6634 34.338C28.1356 33.8736 28.7524 33.6176 29.3998 33.6176H31.666C32.3125 33.6176 32.9292 33.8736 33.3933 34.329C33.8571 34.7984 34.1133 35.4149 34.1133 36.0651H36.0158C36.0158 34.9105 35.5649 33.8184 34.7349 32.9811C33.9035 32.1648 32.8133 31.7151 31.6658 31.7151H31.4855V29.9505H29.5835V29.9504Z" fill="#FB7710"/>
<defs>
<filter id="filter0_d" x="6.00684" y="0" width="67.9873" height="68.0009" filterUnits="userSpaceOnUse" color-interpolation-filters="sRGB">
<feFlood flood-opacity="0" result="BackgroundImageFix"/>
<feColorMatrix in="SourceAlpha" type="matrix" values="0 0 0 0 0 0 0 0 0 0 0 0 0 0 0 0 0 0 127 0"/>
<feOffset dy="4"/>
<feGaussianBlur stdDeviation="2"/>
<feColorMatrix type="matrix" values="0 0 0 0 0 0 0 0 0 0 0 0 0 0 0 0 0 0 0.25 0"/>
<feBlend mode="normal" in2="BackgroundImageFix" result="effect1_dropShadow"/>
<feBlend mode="normal" in="SourceGraphic" in2="effect1_dropShadow" result="shape"/>
</filter>
</defs>
</svg>
