<svg width="65" height="67" viewBox="0 0 65 67" fill="none" xmlns="http://www.w3.org/2000/svg">
<g opacity="0.26">
<rect x="29.5278" y="23.8274" width="2.32899" height="2.14984" fill="#FB7710"/>
<rect x="24.8696" y="23.8274" width="2.32899" height="2.14984" fill="#FB7710"/>
<rect x="20.2119" y="23.8274" width="2.32899" height="2.14984" fill="#FB7710"/>
<rect x="52.8174" y="54.1042" width="8.95765" height="2.14984" fill="#FB7710"/>
<rect x="11.0747" y="1.07492" width="8.95765" height="2.14984" fill="#FB7710"/>
<path fill-rule="evenodd" clip-rule="evenodd" d="M19.4557 48.7349L18.5991 48.0068L38.9993 27.5896H62.8499V28.6262C62.8499 36.9491 58.9769 44.3826 52.9412 49.2198L53.3402 49.6192H61.8131V51.6923H52.4825L51.2567 50.4653C47.0434 53.3265 41.9628 55 36.4988 55C30.2625 55 24.2096 52.7746 19.4557 48.7349ZM51.4676 47.7447C56.8786 43.4914 60.4477 36.9921 60.757 29.6629H39.8574L21.6711 47.8639C25.907 51.1369 31.1289 52.9269 36.4986 52.9269C41.39 52.9269 45.9482 51.4715 49.7638 48.9709L45.8851 45.0886L47.3495 43.6227L51.4676 47.7447Z" fill="#FB7710"/>
<path fill-rule="evenodd" clip-rule="evenodd" d="M36.3738 2.14983H37.4104V26.0005L16.9929 46.4006L16.2648 45.5438C12.2251 40.7898 10 34.737 10 28.5009C10 20.1875 13.8741 12.7624 19.912 7.92928L19.5154 7.53294H11.0355V5.4619H20.3741L21.5976 6.68443C25.8155 3.82333 30.9026 2.14983 36.3738 2.14983ZM17.136 43.3284L35.3372 25.1427V4.24266C30.8326 4.43278 26.6419 5.85507 23.0928 8.1783L26.9775 12.0597L25.5117 13.5241L21.386 9.40192C15.7191 13.8508 12.0729 20.7583 12.0729 28.5008C12.0729 33.8702 13.8636 39.0924 17.136 43.3284Z" fill="#FB7710"/>
<path d="M41.9968 16.6612L54.0716 4.54095C53.4885 4.13687 52.887 3.759 52.27 3.40391L39.9185 15.8029C40.6379 16.0354 41.3323 16.3229 41.9968 16.6612Z" fill="#FB7710"/>
<path d="M45.1384 18.8111L56.9379 6.91476C56.4346 6.43992 55.912 5.98639 55.3715 5.55375L43.5015 17.5215C44.0776 17.9122 44.6262 18.3417 45.1384 18.8111Z" fill="#FB7710"/>
<path d="M48.5995 1.61238L39.5601 10.5239V13.4365L50.6676 2.48562C49.9949 2.16443 49.3038 1.87512 48.5995 1.61238Z" fill="#FB7710"/>
<path d="M39.5601 0V2.86645L42.4265 0.150838C41.4848 0.0537787 40.5289 0 39.5601 0Z" fill="#FB7710"/>
<path d="M44.3797 0.53746L39.5601 5.33428V8.24104L46.7262 1.10839C45.958 0.88234 45.1754 0.691054 44.3797 0.53746Z" fill="#FB7710"/>
<path d="M47.4426 21.6775L59.4463 9.64415C59.0142 9.09805 58.5609 8.5699 58.0864 8.06189L46.189 19.9893C46.6479 20.5182 47.0636 21.085 47.4426 21.6775Z" fill="#FB7710"/>
<path d="M59.6652 25.2606L64.4624 20.4409C64.3089 19.6444 64.1176 18.8621 63.8912 18.0945L56.7588 25.2606H59.6652Z" fill="#FB7710"/>
<path d="M64.8489 22.5733L62.1338 25.4397H65.0002V25.4394C65.0002 24.4709 64.9465 23.5152 64.8489 22.5733Z" fill="#FB7710"/>
<path d="M49.1551 25.2606L61.5962 12.7384C61.2437 12.1185 60.868 11.5141 60.4664 10.9283L48.3389 23.1343C48.6634 23.8157 48.9391 24.5251 49.1551 25.2606Z" fill="#FB7710"/>
<path d="M54.2967 25.4397L63.2084 16.4004C62.9451 15.6964 62.6565 15.0049 62.3349 14.3322L51.3843 25.4397H54.2967Z" fill="#FB7710"/>
</g>
<rect x="19.5278" y="33.8274" width="2.32899" height="2.14984" fill="#FB7710"/>
<rect x="14.8696" y="33.8274" width="2.32899" height="2.14984" fill="#FB7710"/>
<rect x="10.2119" y="33.8274" width="2.32899" height="2.14984" fill="#FB7710"/>
<rect x="42.8174" y="64.1042" width="8.95765" height="2.14984" fill="#FB7710"/>
<rect x="1.07471" y="11.0749" width="8.95765" height="2.14984" fill="#FB7710"/>
<path fill-rule="evenodd" clip-rule="evenodd" d="M9.45575 58.7349L8.59912 58.0068L28.9993 37.5896H52.8499V38.6262C52.8499 46.9491 48.9769 54.3826 42.9412 59.2198L43.3402 59.6192H51.8131V61.6923H42.4825L41.2567 60.4653C37.0434 63.3265 31.9628 65 26.4988 65C20.2625 65 14.2096 62.7746 9.45575 58.7349ZM41.4676 57.7447C46.8786 53.4914 50.4477 46.9921 50.757 39.6629H29.8574L11.6711 57.8639C15.907 61.1369 21.1289 62.9269 26.4986 62.9269C31.39 62.9269 35.9482 61.4715 39.7638 58.9709L35.8851 55.0886L37.3495 53.6227L41.4676 57.7447Z" fill="#FB7710"/>
<path fill-rule="evenodd" clip-rule="evenodd" d="M26.3738 12.1498H27.4104V36.0005L6.99289 56.4007L6.2648 55.5438C2.22513 50.7898 0 44.737 0 38.5009C0 30.1875 3.87413 22.7624 9.91204 17.9293L9.51535 17.5329H1.0355V15.4619H10.3741L11.5976 16.6844C15.8155 13.8233 20.9026 12.1498 26.3738 12.1498ZM7.13597 53.3284L25.3372 35.1427V14.2427C20.8326 14.4328 16.6419 15.8551 13.0928 18.1783L16.9775 22.0597L15.5117 23.5241L11.386 19.4019C5.71911 23.8508 2.07286 30.7583 2.07286 38.5008C2.07286 43.8702 3.86361 49.0924 7.13597 53.3284Z" fill="#FB7710"/>
<path d="M31.9968 26.6612L44.0716 14.5409C43.4885 14.1369 42.887 13.759 42.27 13.4039L29.9185 25.8029C30.6379 26.0354 31.3323 26.3229 31.9968 26.6612Z" fill="#FB7710"/>
<path d="M35.1384 28.8111L46.9379 16.9148C46.4346 16.4399 45.912 15.9864 45.3715 15.5537L33.5015 27.5215C34.0776 27.9122 34.6262 28.3417 35.1384 28.8111Z" fill="#FB7710"/>
<path d="M38.5995 11.6124L29.5601 20.5239V23.4365L40.6676 12.4856C39.9949 12.1644 39.3038 11.8751 38.5995 11.6124Z" fill="#FB7710"/>
<path d="M29.5601 10V12.8664L32.4265 10.1508C31.4848 10.0538 30.5289 10 29.5601 10Z" fill="#FB7710"/>
<path d="M34.3797 10.5375L29.5601 15.3343V18.241L36.7262 11.1084C35.958 10.8823 35.1754 10.6911 34.3797 10.5375Z" fill="#FB7710"/>
<path d="M37.4426 31.6775L49.4463 19.6441C49.0142 19.0981 48.5609 18.5699 48.0864 18.0619L36.189 29.9893C36.6479 30.5182 37.0636 31.085 37.4426 31.6775Z" fill="#FB7710"/>
<path d="M49.6652 35.2606L54.4624 30.4409C54.3089 29.6444 54.1176 28.8621 53.8912 28.0945L46.7588 35.2606H49.6652Z" fill="#FB7710"/>
<path d="M54.8489 32.5733L52.1338 35.4397H55.0002V35.4394C55.0002 34.4709 54.9465 33.5152 54.8489 32.5733Z" fill="#FB7710"/>
<path d="M39.1551 35.2606L51.5962 22.7384C51.2437 22.1185 50.868 21.5141 50.4664 20.9283L38.3389 33.1343C38.6634 33.8157 38.9391 34.5251 39.1551 35.2606Z" fill="#FB7710"/>
<path d="M44.2967 35.4397L53.2084 26.4004C52.9451 25.6964 52.6565 25.0049 52.3349 24.3322L41.3843 35.4397H44.2967Z" fill="#FB7710"/>
</svg>
