<svg width="70" height="70" viewBox="0 0 70 70" fill="none" xmlns="http://www.w3.org/2000/svg">
<path fill-rule="evenodd" clip-rule="evenodd" d="M10 30C10.0004 13.4577 23.458 0 40 0C56.5421 0 69.9996 13.4577 69.9996 30C69.9996 46.5423 56.5423 60 40 60C23.4577 60 10 46.5423 10 30ZM12.118 30C12.118 45.3744 24.6259 57.8827 40.0004 57.8827C55.3744 57.8827 67.8823 45.3744 67.8823 30C67.882 14.6256 55.3741 2.1177 40 2.1177C24.6256 2.1177 12.118 14.6256 12.118 30Z" fill="#FB7710" fill-opacity="0.26"/>
<path fill-rule="evenodd" clip-rule="evenodd" d="M13.8398 29.9996C13.8398 15.575 25.575 3.8396 40.0002 3.8396C54.4248 3.8396 66.16 15.5751 66.1598 29.9996C66.1598 44.4244 54.4248 56.1596 40.0002 56.1596C25.5752 56.1596 13.8398 44.4244 13.8398 29.9996ZM15.9575 30C15.9575 43.2576 26.7429 54.0423 40.0002 54.0423C53.2573 54.0423 64.0423 43.2575 64.0423 30C64.0425 16.743 53.2573 5.95765 40.0002 5.95765C26.7431 5.95765 15.9575 16.743 15.9575 30Z" fill="#FB7710" fill-opacity="0.26"/>
<path fill-rule="evenodd" clip-rule="evenodd" d="M35.5288 29.9997C35.5288 27.5339 37.5343 25.5281 40.0001 25.5281C42.466 25.5281 44.4714 27.5338 44.4713 29.9997C44.4713 32.4649 42.4659 34.4713 40.0001 34.4713C37.5343 34.4713 35.5288 32.4649 35.5288 29.9997ZM37.6414 29.9999C37.6414 31.3005 38.6998 32.3586 40.0001 32.3586C41.3 32.3586 42.3585 31.3005 42.3584 29.9999C42.3588 28.6994 41.3004 27.6412 40.0001 27.6412C38.6998 27.6412 37.6414 28.6996 37.6414 29.9999Z" fill="#FB7710" fill-opacity="0.26"/>
<path fill-rule="evenodd" clip-rule="evenodd" d="M43.4864 30.9661V28.8476H58.9602V29.9071C58.9602 39.9932 51.054 48.2621 41.1284 48.8134V59.04H39.0154V48.8134C29.4397 48.2814 21.7439 40.5661 21.2132 30.9663H11.2002V28.8478H21.213C21.7436 19.2469 29.4394 11.5312 39.0154 10.9992V0.959961H41.1284V26.4831H39.0154V20.3745C34.5829 20.8652 31.0536 24.4035 30.5643 28.8478H36.657V30.9663H30.5644C31.0539 35.4102 34.5829 38.9484 39.0154 39.439V32.7937H41.1284V39.439C45.5607 38.9484 49.0897 35.4101 49.5791 30.9661H43.4864ZM39.0154 18.2451V13.1215C30.6045 13.6482 23.855 20.4156 23.3299 28.8478H28.4407C28.9449 23.234 33.4165 18.7508 39.0154 18.2451ZM23.33 30.9663H28.4408C28.9453 36.5799 33.4165 41.0629 39.0155 41.5685V46.6911C30.605 46.1645 23.8554 39.3982 23.33 30.9663ZM41.1284 41.5685V46.6912C49.539 46.1646 56.2899 39.3983 56.8146 30.966H51.7031C51.1987 36.5799 46.7275 41.0629 41.1284 41.5685Z" fill="#FB7710" fill-opacity="0.26"/>
<path fill-rule="evenodd" clip-rule="evenodd" d="M35.6802 29.8799C35.6802 27.4316 37.6716 25.4399 40.1202 25.4399C42.5688 25.4399 44.5603 27.4315 44.5602 29.8799C44.5602 32.3277 42.5687 34.3199 40.1202 34.3199C37.6716 34.3199 35.6802 32.3277 35.6802 29.8799ZM37.778 29.8802C37.778 31.1715 38.829 32.2222 40.1202 32.2222C41.411 32.2222 42.4621 31.1715 42.462 29.8802C42.4624 28.5888 41.4114 27.5382 40.1202 27.5382C38.829 27.5382 37.778 28.5891 37.778 29.8802Z" fill="#FB7710" fill-opacity="0.26"/>
<path d="M55.0388 20.8019C56.1327 20.8019 57.0195 19.9194 57.0195 18.8307C57.0195 17.7421 56.1327 16.8596 55.0388 16.8596C53.9449 16.8596 53.0581 17.7421 53.0581 18.8307C53.0581 19.9194 53.9449 20.8019 55.0388 20.8019Z" fill="#FB7710" fill-opacity="0.26"/>
<path d="M20.6082 37.278C20.061 37.278 19.6182 37.7186 19.6182 38.2629C19.6182 38.809 20.061 39.2485 20.6082 39.2485C21.155 39.2485 21.5981 38.809 21.5981 38.2629C21.5981 37.7186 21.155 37.278 20.6082 37.278Z" fill="#FB7710" fill-opacity="0.26"/>
<path d="M30.6647 21.0237C31.4851 21.0237 32.1502 20.3618 32.1502 19.5454C32.1502 18.7289 31.4851 18.067 30.6647 18.067C29.8443 18.067 29.1792 18.7289 29.1792 19.5454C29.1792 20.3618 29.8443 21.0237 30.6647 21.0237Z" fill="#FB7710" fill-opacity="0.26"/>
<path d="M45.6829 23.2922C46.0929 23.2922 46.4254 22.9614 46.4254 22.5533C46.4254 22.1453 46.0929 21.8145 45.6829 21.8145C45.2728 21.8145 44.9404 22.1453 44.9404 22.5533C44.9404 22.9614 45.2728 23.2922 45.6829 23.2922Z" fill="#FB7710" fill-opacity="0.26"/>
<path d="M46.1703 48.8116C45.3492 48.8116 44.6846 49.4752 44.6846 50.2912C44.6846 51.1071 45.3492 51.7676 46.1703 51.7676C46.9902 51.7676 47.6549 51.1071 47.6549 50.2912C47.6549 49.4748 46.9902 48.8113 46.1703 48.8116Z" fill="#FB7710" fill-opacity="0.26"/>
<path fill-rule="evenodd" clip-rule="evenodd" d="M0 40C0.000351563 23.4577 13.458 10 30 10C46.5421 10 59.9996 23.4577 59.9996 40C59.9996 56.5423 46.5423 70 30 70C13.4577 70 0 56.5423 0 40ZM2.11805 40C2.11805 55.3744 14.6259 67.8827 30.0004 67.8827C45.3744 67.8827 57.8823 55.3744 57.8823 40C57.882 24.6256 45.3741 12.1177 30 12.1177C14.6256 12.1177 2.11805 24.6256 2.11805 40Z" fill="#FB7710"/>
<path fill-rule="evenodd" clip-rule="evenodd" d="M3.83984 39.9996C3.83984 25.575 15.575 13.8396 30.0002 13.8396C44.4248 13.8396 56.16 25.5751 56.1598 39.9996C56.1598 54.4244 44.4248 66.1596 30.0002 66.1596C15.5752 66.1596 3.83984 54.4244 3.83984 39.9996ZM5.95754 40C5.95754 53.2576 16.7429 64.0423 30.0002 64.0423C43.2573 64.0423 54.0423 53.2575 54.0423 40C54.0425 26.743 43.2573 15.9576 30.0002 15.9576C16.7431 15.9576 5.95754 26.743 5.95754 40Z" fill="#FB7710"/>
<path fill-rule="evenodd" clip-rule="evenodd" d="M25.5288 39.9997C25.5288 37.5339 27.5343 35.5281 30.0001 35.5281C32.466 35.5281 34.4714 37.5338 34.4713 39.9997C34.4713 42.4649 32.4659 44.4713 30.0001 44.4713C27.5343 44.4713 25.5288 42.4649 25.5288 39.9997ZM27.6414 39.9999C27.6414 41.3005 28.6998 42.3586 30.0001 42.3586C31.3 42.3586 32.3585 41.3005 32.3584 39.9999C32.3588 38.6994 31.3004 37.6412 30.0001 37.6412C28.6998 37.6412 27.6414 38.6996 27.6414 39.9999Z" fill="#FB7710"/>
<path fill-rule="evenodd" clip-rule="evenodd" d="M33.4864 40.9661V38.8476H48.9602V39.9071C48.9602 49.9932 41.054 58.2621 31.1284 58.8134V69.04H29.0154V58.8134C19.4397 58.2814 11.7439 50.5661 11.2132 40.9663H1.2002V38.8478H11.213C11.7436 29.2469 19.4394 21.5312 29.0154 20.9992V10.96H31.1284V36.4831H29.0154V30.3745C24.5829 30.8652 21.0536 34.4035 20.5643 38.8478H26.657V40.9663H20.5644C21.0539 45.4102 24.5829 48.9484 29.0154 49.439V42.7937H31.1284V49.439C35.5607 48.9484 39.0897 45.4101 39.5791 40.9661H33.4864ZM29.0154 28.2451V23.1215C20.6045 23.6482 13.855 30.4156 13.3299 38.8478H18.4407C18.9449 33.234 23.4165 28.7508 29.0154 28.2451ZM13.33 40.9663H18.4408C18.9453 46.5799 23.4165 51.0629 29.0155 51.5685V56.6911C20.605 56.1645 13.8554 49.3982 13.33 40.9663ZM31.1284 51.5685V56.6912C39.539 56.1646 46.2899 49.3983 46.8146 40.966H41.7031C41.1987 46.5799 36.7275 51.0629 31.1284 51.5685Z" fill="#FB7710"/>
<path fill-rule="evenodd" clip-rule="evenodd" d="M25.6802 39.8799C25.6802 37.4316 27.6716 35.4399 30.1202 35.4399C32.5688 35.4399 34.5603 37.4315 34.5602 39.8799C34.5602 42.3277 32.5687 44.3199 30.1202 44.3199C27.6716 44.3199 25.6802 42.3277 25.6802 39.8799ZM27.778 39.8802C27.778 41.1715 28.829 42.2222 30.1202 42.2222C31.411 42.2222 32.4621 41.1715 32.462 39.8802C32.4624 38.5888 31.4114 37.5382 30.1202 37.5382C28.829 37.5382 27.778 38.5891 27.778 39.8802Z" fill="#FB7710"/>
<path d="M45.0388 30.8019C46.1327 30.8019 47.0195 29.9194 47.0195 28.8307C47.0195 27.7421 46.1327 26.8596 45.0388 26.8596C43.9449 26.8596 43.0581 27.7421 43.0581 28.8307C43.0581 29.9194 43.9449 30.8019 45.0388 30.8019Z" fill="#FB7710"/>
<path d="M10.6082 47.278C10.061 47.278 9.61816 47.7186 9.61816 48.2629C9.61816 48.809 10.061 49.2485 10.6082 49.2485C11.155 49.2485 11.5981 48.809 11.5981 48.2629C11.5981 47.7186 11.155 47.278 10.6082 47.278Z" fill="#FB7710"/>
<path d="M20.6647 31.0237C21.4851 31.0237 22.1502 30.3618 22.1502 29.5454C22.1502 28.7289 21.4851 28.067 20.6647 28.067C19.8443 28.067 19.1792 28.7289 19.1792 29.5454C19.1792 30.3618 19.8443 31.0237 20.6647 31.0237Z" fill="#FB7710"/>
<path d="M35.6829 33.2922C36.0929 33.2922 36.4254 32.9614 36.4254 32.5533C36.4254 32.1453 36.0929 31.8145 35.6829 31.8145C35.2728 31.8145 34.9404 32.1453 34.9404 32.5533C34.9404 32.9614 35.2728 33.2922 35.6829 33.2922Z" fill="#FB7710"/>
<path d="M36.1703 58.8116C35.3492 58.8116 34.6846 59.4752 34.6846 60.2912C34.6846 61.1071 35.3492 61.7676 36.1703 61.7676C36.9902 61.7676 37.6549 61.1071 37.6549 60.2912C37.6549 59.4748 36.9902 58.8113 36.1703 58.8116Z" fill="#FB7710"/>
</svg>
