<svg width="30" height="24" viewBox="0 0 30 24" fill="none" xmlns="http://www.w3.org/2000/svg">
<path fill-rule="evenodd" clip-rule="evenodd" d="M0.517241 0H29.4828C29.7683 0 30 0.231207 30 0.517241V23.2759C30 23.5619 29.7683 23.7931 29.4828 23.7931H0.517241C0.231724 23.7931 0 23.5619 0 23.2759V0.517241C0 0.231207 0.231724 0 0.517241 0ZM1.03448 22.7586H5.17241V18.1034H1.03448V22.7586ZM5.17241 17.069H1.03448V12.4138H5.17241V17.069ZM1.03448 11.3793H5.17241V6.72414H1.03448V11.3793ZM5.17241 5.68966H1.03448V1.03448H5.17241V5.68966ZM13.2088 15.9538L18.8984 12.3331C19.0474 12.2379 19.1379 12.0734 19.1379 11.8966C19.1379 11.7197 19.0474 11.5552 18.899 11.46L13.2093 7.83931C13.0495 7.73845 12.8478 7.73172 12.6822 7.82224C12.5167 7.91328 12.4138 8.08707 12.4138 8.27586V15.5172C12.4138 15.706 12.5167 15.8798 12.6822 15.9709C12.7598 16.0133 12.8452 16.0345 12.931 16.0345C13.0278 16.0345 13.1245 16.0071 13.2088 15.9538ZM28.9655 22.7586H24.8276V18.1034H28.9655V22.7586ZM24.8276 17.069H28.9655V12.4138H24.8276V17.069ZM28.9655 11.3793H24.8276V6.72414H28.9655V11.3793ZM24.8276 5.68966H28.9655V1.03448H24.8276V5.68966Z" fill="#323134"/>
</svg>
